<?xml version="1.0" encoding="utf-8"?>
<!-- Generator: Adobe Illustrator 28.3.0, SVG Export Plug-In . SVG Version: 6.00 Build 0)  -->
<svg version="1.1" id="Vrstva_1" xmlns="http://www.w3.org/2000/svg" xmlns:xlink="http://www.w3.org/1999/xlink" x="0px" y="0px"
	 viewBox="0 0 1152 410" style="enable-background:new 0 0 1152 410;" xml:space="preserve">
<style type="text/css">
	.st0{clip-path:url(#SVGID_00000181769248704474419480000002732682735458482345_);fill:#1D1D1B;}
	.st1{clip-path:url(#SVGID_00000181769248704474419480000002732682735458482345_);fill:#706F6F;}
	.st2{clip-path:url(#SVGID_00000181769248704474419480000002732682735458482345_);fill:#9D9D9C;}
	.st3{clip-path:url(#SVGID_00000036949800759104087260000002098090279570456217_);}
	.st4{fill:#FFFFFF;}
</style>
<g>
	<g>
		<defs>
			<rect id="SVGID_1_" x="0.6" y="0.2" width="1151.5" height="410.1"/>
		</defs>
		<clipPath id="SVGID_00000140702953160252524720000006036572456699240590_">
			<use xlink:href="#SVGID_1_"  style="overflow:visible;"/>
		</clipPath>
		<path style="clip-path:url(#SVGID_00000140702953160252524720000006036572456699240590_);fill:#1D1D1B;" d="M1022.1,289.7
			c7.8-1.2,14.8-2.2,21.9-3.3c26.1-3.9,52.1-8.1,78.2-11.8c13.3-1.9,25.4,8.7,27.2,23c0.6,4.9,1.3,9.8,2.2,14.7
			c3.2,17.4-8,29.5-24.2,31.5c-13.7,1.7-27.4,4.2-41.1,6.4c-9.2,1.4-18.4,2.9-27.6,4.4c-9.1,1.4-18.2,2.7-27.1,4.5
			c-9.4,1.9-9.3,2.2-9.4,12c0,97.7,0,195.4,0,293.2c0,17.4-10.3,31.2-26.6,37.3c-29.1,10.9-58.4,20.8-88.4,29
			c-36.1,9.8-72.5,17.8-109.5,22.9c-29.8,4.1-59.7,8.1-89.6,10.5c-32.9,2.6-65.9,4-98.9,4.5c-37.3,0.5-74.6,0.1-111.8-1.2
			c-39.4-1.4-78.7-5-117.9-10.2c-70.3-9.3-139-25.1-205.8-49.1c-6.6-2.4-13.2-4.6-19.6-7.6c-15.7-7.3-23.9-19.6-23.9-37.1
			c0-99.4,0-198.7,0-298.1v-5.5c-7.2-1.1-14.3-2.2-21.5-3.3c-26.6-4.1-53.2-8.1-79.8-12.1c-3.3-0.5-6.6-0.8-9.8-1.6
			c-12.6-3.3-19.8-13.9-18.5-27.4c0.7-6.7,1.7-13.4,3.1-19.9c2.9-14.4,14.6-22.3,29.1-20.1c31,4.7,61.9,9.4,92.9,14
			c1.3,0.2,2.7,0,4.3,0v-86.3h891.9V289.7z M363.8,713.2c1.1-0.8,2.9-1.4,3.3-2.5c0.4-1.1-0.5-2.7-1.2-3.9c-0.5-0.9-1.7-1.4-2.6-2
			c-11.7-8-23.6-15.7-35-24c-24.7-18-43.7-40.7-55.8-69c-13.5-31.6-19-65.1-23.1-98.9c-2.1-17.2-3.6-34.4-5.2-51.6
			c-2-21.9-3.7-43.8-5.6-65.7c-1.4-15.5-2.5-30.9-4.4-46.3c-2.6-20.7-5.7-41.3-8.9-61.9c-1.3-8.3-3.1-16.4-5-24.6
			c-0.3-1.2-1.9-2.7-3.2-3c-0.9-0.2-2.3,1.4-3.2,2.5c-0.6,0.7-0.7,1.8-1,2.7c-17.7,56.4-28.2,114.1-32.1,173.1
			c-2,30.9-2,61.8,2.1,92.7c3.8,28.1,10.4,55.5,22.6,81.2C237,678.5,291.2,709.9,363.8,713.2"/>
		<path style="clip-path:url(#SVGID_00000140702953160252524720000006036572456699240590_);fill:#706F6F;" d="M1091.9,221.2
			c-297.2-37.6-593.2-75.1-889.3-112.6c0.7-7.2,4.3-12.4,9-16.9c11.1-10.7,25-16.4,39.2-21c22-7.2,44.6-11.3,67.5-14.3
			c47.6-6.2,95.4-8.1,143.3-7.1c32.7,0.7,65.4,2.6,98.1,4.7c24.1,1.6,48.2,4.3,72.2,6.6c1.6,0.1,3.3,0.2,5.3,0.3
			c0.8-6.3,1.5-12.4,2.3-18.2c-7.2-2.9-14.2-5.3-20.7-8.7c-4.4-2.3-8.7-5.4-12.2-8.9c-5.8-5.8-4.8-12,1.9-16.7
			c6.4-4.4,13.8-6.2,21.3-7c27-3.2,53.2,0.2,78.1,11.3c4.6,2,8.9,5,12.8,8.2c7.9,6.7,7.2,14.5-1.7,19.6c-8.9,5.2-18.9,6.4-29,6.9
			c-5.8,0.3-5.7,0.2-6.4,6c-0.5,4.3-1.2,8.6-1.8,13.2c8.5,1.3,16.4,2.5,24.4,3.8c21.1,3.5,42.3,6.9,63.3,10.7
			c43,7.7,85.5,17.3,127.5,29c43.3,12,85.9,25.9,126.4,45.5c18.6,9,36.6,19.1,51.8,33.4c5.9,5.6,11.4,11.7,14,19.6
			C1090.5,212.3,1090.9,216.4,1091.9,221.2"/>
		<path style="clip-path:url(#SVGID_00000140702953160252524720000006036572456699240590_);fill:#9D9D9C;" d="M134,157.3
			c0.4-6.6,3.5-12.4,8.6-17.9c2.3-2.5,4.6-5,6.4-7.7c3-4.4,2.6-8.9,1-13.5c-1.9-5.4-6-10-11.2-14.2c-4.4-3.5-8.3-7.2-10.7-11.7
			c-2.4-4.6-3.2-9.4-2.7-14.3c0.7-6.8,4.5-12.8,10.5-18c5.1-4.5,8.8-9.5,10.8-15.1c0.2-0.5,0.8-0.8,1.2-1.2c0.4,0.4,1,0.8,1.2,1.3
			c3,6.1,2.3,12-0.8,18c-1.5,3-3.1,6-4.2,9.1c-1.3,3.7-0.7,7.4-0.2,11.1c0.8,5.7,4.5,10.6,8.9,15.3c3.6,3.9,6.1,8.1,6.6,12.8
			c0.5,4.2,0,8.4-1.2,12.6c-1.3,4.5-3.7,8.8-6.8,12.8c-4,5.2-5.2,10.7-3.5,16.5c0.9,3,1.9,6,3,9c1.5,3.9,4.7,7.3,7.5,10.8
			c3.7,4.6,5.8,9.4,5.2,14.7c-0.2,1.4-0.6,2.8-1,4.1c-0.1,0.3-0.6,0.5-0.9,0.8c-0.4-0.2-0.8-0.4-1.1-0.7c-1.5-2.1-2.7-4.3-4.5-6.2
			c-2.9-2.9-6.1-5.7-9.5-8.4c-5-3.9-9.3-8-11.1-13.2C134.8,161.9,134.5,159.6,134,157.3"/>
		<path style="clip-path:url(#SVGID_00000140702953160252524720000006036572456699240590_);fill:#9D9D9C;" d="M179.3,43.6
			c0.1-6.1-1.5-11.2-4.1-16.3c-1.8-3.6-3.2-7.3-3-11.1c0.1-3.4,1.2-6.6,3.4-9.7c0.2-0.3,0.8-0.6,1.2-0.8c0.4,0.3,0.9,0.5,1.1,0.9
			c2.4,6.2,7,11.6,12.3,16.7c5.8,5.6,8.3,11.9,7.3,18.8C196,51.2,191,59,180,64.5c-3.4,1.7-6.2,3.8-8.1,6.4
			c-2.8,3.8-3.1,7.8-1.3,11.7c2,4.4,4.6,8.6,7.1,12.9c2.5,4.3,4.7,8.5,4.3,13.3c-0.2,3.1-1.3,6.1-3.5,8.9c-0.2,0.3-0.7,0.6-1.1,0.6
			c-0.3,0-0.9-0.4-1-0.7c-2.8-6.4-7.6-12.1-12.5-17.7c-4.9-5.6-5.4-11.6-2.8-17.9c3.3-7.7,7.2-15.2,12.5-22.3
			C177.3,54.5,179.5,48.9,179.3,43.6"/>
		<path style="clip-path:url(#SVGID_00000140702953160252524720000006036572456699240590_);fill:#1D1D1B;" d="M363.8,713.2
			c-72.6-3.4-126.7-34.7-158.2-101.3c-12.2-25.7-18.8-53.1-22.6-81.2c-4.2-30.8-4.2-61.8-2.1-92.7c3.9-58.9,14.4-116.7,32.1-173.1
			c0.3-0.9,0.4-2,1-2.7c0.9-1.1,2.3-2.7,3.2-2.5c1.2,0.2,2.9,1.7,3.2,3c1.9,8.1,3.7,16.3,5,24.6c3.2,20.6,6.3,41.2,8.9,61.9
			c1.9,15.4,3.1,30.9,4.4,46.3c1.9,21.9,3.6,43.8,5.6,65.7c1.6,17.2,3.1,34.5,5.2,51.6c4,33.8,9.6,67.3,23.1,98.9
			c12.1,28.3,31.1,51,55.8,69c11.4,8.3,23.3,16,35,24c0.9,0.6,2,1.1,2.6,2c0.7,1.2,1.6,2.8,1.2,3.9
			C366.7,711.8,364.9,712.4,363.8,713.2"/>
	</g>
	<g>
		<defs>
			<rect id="SVGID_00000070095114688915001230000004072773879425863063_" x="-23.7" y="-32.1" width="1200" height="442.4"/>
		</defs>
		<clipPath id="SVGID_00000088816033876277910640000010454755614705346742_">
			<use xlink:href="#SVGID_00000070095114688915001230000004072773879425863063_"  style="overflow:visible;"/>
		</clipPath>
		<g style="clip-path:url(#SVGID_00000088816033876277910640000010454755614705346742_);">
			<path class="st4" d="M199.8,343.3c-2.3-1.1-4.9-1.6-7.9-1.6c-2.3,0-4.7,0-6.9,0.1c-2.3,0.1-4.8,0.1-7.4,0.2l-0.4,0.4v42.5
				c0.8,0.1,1.6,0.2,2.5,0.3c0.9,0,1.7,0.1,2.3,0.1c0.6,0,1.4,0,2.3-0.1c0.9,0,1.7-0.1,2.5-0.3v-13.6h5.2c2.9,0,5.6-0.6,7.9-1.7
				c2.3-1.1,4.1-2.8,5.4-4.9c1.3-2.2,2-4.9,2-8.2c0-3.3-0.7-6.1-2-8.3C203.9,346,202.1,344.3,199.8,343.3z M196.9,359.7
				c-0.3,1.2-0.9,2.1-1.8,2.9c-0.9,0.8-2.2,1.2-3.9,1.2c-0.4,0-1.2,0-2.4,0c-0.7,0-1.4,0-2.1,0.1v-15c0.9,0,1.7,0,2.4,0
				c0.7,0,1.4,0,2.1,0c1.7,0,3,0.4,3.9,1.2c0.9,0.8,1.5,1.8,1.8,2.9c0.3,1.2,0.5,2.2,0.5,3.2C197.4,357.5,197.2,358.6,196.9,359.7z"
				/>
			<path class="st4" d="M244.7,380.6c-0.5-0.8-0.9-1.7-1.3-2.7l-2-5.6c-0.5-1.4-1.1-2.5-1.9-3.6c-0.8-1-1.7-1.7-2.9-2.1
				c1.3-0.5,2.5-1.2,3.7-2.3c1.2-1,2.2-2.3,2.9-3.9c0.8-1.5,1.1-3.3,1.1-5.3c0-3.1-0.7-5.7-2-7.7c-1.3-2-3.1-3.5-5.4-4.4
				c-2.3-1-4.9-1.4-7.8-1.4c-2.3,0-4.7,0-7.2,0.1c-2.4,0.1-5,0.1-7.6,0.2l-0.4,0.4v42.5c0.8,0.1,1.6,0.2,2.5,0.3
				c0.9,0,1.7,0.1,2.2,0.1c0.6,0,1.4,0,2.3-0.1c0.9,0,1.7-0.1,2.5-0.3v-15.9h2.9c1.7,0,3,0.4,3.7,1.2c0.8,0.8,1.3,1.8,1.7,2.9
				l2.4,6.8c0.6,1.8,1.4,3.2,2.1,4.2c0.8,0.9,2,1.4,3.8,1.4c1.3,0,2.5-0.3,3.7-0.8c1.2-0.5,2.1-1.2,2.7-2
				C245.8,382,245.2,381.4,244.7,380.6z M234,358.2c-0.3,1-0.9,1.7-1.8,2.3c-0.9,0.6-2.2,0.9-3.8,0.9c-0.5,0-1.3,0-2.4,0
				c-0.8,0-1.7,0.1-2.6,0.1v-12.7c0.6,0,1.2,0,1.8,0c0.6,0,1.2,0,1.7,0c0.5,0,1,0,1.5,0c1.7,0,2.9,0.3,3.8,0.9
				c0.9,0.6,1.5,1.3,1.8,2.3c0.3,1,0.5,2,0.5,3.1C234.5,356.3,234.3,357.3,234,358.2z"/>
			<path class="st4" d="M363.5,342.3c-0.6-0.2-1.4-0.4-2.2-0.5c-0.8-0.1-1.7-0.2-2.5-0.2c-0.6,0-1.3,0-1.9,0.1c-0.7,0-1.3,0.1-2,0.3
				l-4.5,11.1c-0.4,0.9-0.7,1.9-1.1,2.9c-0.4,1-0.7,2.1-1.1,3.1c-0.3,1.1-0.6,2.1-0.9,3.1h-0.3c-0.4-1.6-0.9-3.2-1.3-4.7
				c-0.5-1.5-1-2.9-1.5-4.2l-3.3-8.1c-0.5-1.4-1.2-2.3-1.9-2.9c-0.7-0.6-1.8-0.9-3.1-0.9c-1,0-2,0.2-3,0.5c-1,0.3-2,0.7-2.8,1.2
				l12.1,28.2v13.5c0.8,0.1,1.6,0.2,2.6,0.3c0.9,0,1.7,0.1,2.3,0.1c0.6,0,1.4,0,2.3-0.1c0.9,0,1.7-0.1,2.5-0.3v-13.2l12.1-28.8
				L363.5,342.3z"/>
			<path class="st4" d="M408.5,348c-0.4-1.1-0.7-2-1.1-2.9h-25.6c-0.3,0.6-0.5,1.4-0.6,2.2s-0.2,1.6-0.2,2.4c0,1.2,0.1,2.2,0.4,3.2
				h10c0.4,0,1,0,1.8,0c0.8,0,1.6-0.1,2.5-0.2c0.9-0.1,1.7-0.2,2.5-0.3c0.8-0.1,1.5-0.2,2-0.4l0.3,0.3c-2.6,2.4-4.9,5.1-6.8,8.3
				c-1.9,3.2-3.5,6.6-4.7,10.2c-1.2,3.6-1.9,7.2-2.2,10.9l-0.3,2.9c0.7,0.1,1.5,0.2,2.3,0.3c0.8,0.1,1.6,0.1,2.5,0.1
				c0.9,0,1.8,0,2.6-0.1c0.8-0.1,1.5-0.1,2.1-0.3l0.2-2.8c0.3-2.7,0.6-5.2,1.1-7.4c0.5-2.2,1.2-4.4,2.1-6.5c0.9-2.1,2-4.2,3.4-6.5
				c1.4-2.2,3.1-4.6,5-7.3c0.4-0.6,0.8-1.2,1-1.9c0.2-0.6,0.3-1.2,0.3-1.7C409,350.1,408.9,349.1,408.5,348z"/>
			<path class="st4" d="M320.5,341.7c-0.6,0-1.4,0-2.3,0.1c-0.9,0-1.7,0.1-2.5,0.3v12.2c0,0.9,0,1.7,0,2.3c0,0.7,0,1.4,0,2.3
				c-0.3,0-0.6,0-1,0c-0.4,0-0.8,0-1.2,0c-0.4,0-0.7,0-1,0h-7.7c-0.3,0-0.6,0-1,0c-0.4,0-0.8,0-1.2,0c-0.4,0-0.7,0-1,0c0,0,0,0,0,0
				c0-0.9,0-1.6,0-2.3c0-0.7,0-1.5,0-2.4V342c-0.8-0.1-1.6-0.2-2.5-0.3c-0.9,0-1.6-0.1-2.3-0.1c-0.6,0-1.4,0-2.3,0.1
				c-0.9,0-1.8,0.1-2.5,0.3v42.8c0.8,0.1,1.6,0.2,2.5,0.3c0.9,0,1.7,0.1,2.3,0.1c0.6,0,1.4,0,2.3-0.1c0.9,0,1.7-0.1,2.5-0.3v-13.5
				c0-0.9,0-1.7,0-2.4c0-0.7,0-1.5,0-2.3c0.3,0,0.6,0,1,0c0.4,0,0.8,0,1.2,0c0.4,0,0.7,0,1,0h7.7c0.3,0,0.6,0,1,0c0.4,0,0.8,0,1.2,0
				c0.4,0,0.7,0,1,0c0,0.8,0,1.6,0,2.3c0,0.7,0,1.5,0,2.4v13.5c0.8,0.1,1.7,0.2,2.6,0.3c0.9,0,1.7,0.1,2.3,0.1c0.7,0,1.4,0,2.3-0.1
				c0.8,0,1.6-0.1,2.4-0.3V342c-0.8-0.1-1.6-0.2-2.5-0.3C321.9,341.7,321.1,341.7,320.5,341.7z"/>
			<path class="st4" d="M270.3,341.8c-1.1-0.1-2-0.1-2.8-0.1c-0.8,0-1.7,0-2.8,0.1c-1.1,0.1-2,0.1-2.8,0.3l-13.9,42.1l0.3,0.5
				c0.6,0.2,1.3,0.3,2.2,0.5c0.9,0.1,1.7,0.2,2.5,0.2c0.7,0,1.4,0,2.1-0.1c0.7,0,1.3-0.1,1.9-0.3l2.8-9.3c0.1,0,0.2,0,0.4,0
				c0.4,0,0.8,0,1.2,0c0.4,0,0.8,0,1.1,0h8.9c0.3,0,0.6,0,1,0c0.4,0,0.8,0,1.3,0c0.1,0,0.3,0,0.4,0l1.3,4.6c0.6,2,1.3,3.4,2.2,4.1
				c0.9,0.7,2,1.1,3.5,1.1c0.9,0,1.9-0.1,2.9-0.3c1-0.2,1.9-0.5,2.6-0.9L273,342.1C272.3,341.9,271.4,341.8,270.3,341.8z
				 M271.8,368.1c-0.4,0-0.8,0-1.2,0c-0.4,0-0.7,0-1,0h-4.8c-0.3,0-0.6,0-1,0c-0.4,0-0.8,0-1.2,0c-0.1,0-0.3,0-0.4,0l1.7-5.8
				c0.3-1.1,0.7-2.3,1.1-3.7c0.4-1.4,0.8-2.7,1.1-4.1c0.3-1.4,0.6-2.6,0.8-3.8h0.4c0.5,2,1.1,4.2,1.7,6.5c0.6,2.3,1.2,4.4,1.7,6.1
				l1.3,4.6C271.9,368.1,271.8,368.1,271.8,368.1z"/>
		</g>
		<g style="clip-path:url(#SVGID_00000088816033876277910640000010454755614705346742_);">
			<path class="st4" d="M371.5,256.2c-1.8-3.5-4.4-6.6-7.9-9.3c-1.7-1.3-3.7-2.4-6.1-3.2c-2.4-0.8-4.8-1.4-7.4-1.8
				c-2.5-0.4-4.8-0.6-6.8-0.6c-3.2,0-6.2,0-9.2,0c-3,0-6,0.1-9,0.1c-3,0.1-6.1,0.2-9.3,0.3l-0.8,0.7v74.8l0.8,0.7
				c3.2,0.1,6.3,0.1,9.3,0.2c3,0.1,6,0.1,8.9,0.2c3,0,6,0.1,9.2,0.1c2,0,4.3-0.2,6.8-0.6c2.5-0.4,4.9-1,7.3-1.8s4.4-1.9,6.1-3.2
				c3.5-2.7,6.2-5.8,7.9-9.3c1.8-3.5,2.9-7.2,3.5-11.2c0.6-4,0.9-8.2,0.9-12.5c0-4.3-0.3-8.4-0.9-12.4
				C374.4,263.4,373.2,259.7,371.5,256.2z M358,288.6c-0.4,3-1.1,5.7-2.1,8.2c-1,2.5-2.6,4.5-4.6,6.1c-2,1.5-4.7,2.3-8,2.3h-5.6
				c-1.8,0-3.7,0-5.8,0.1v-50.9c2.1,0.1,4,0.1,5.8,0.1h5.6c3.3,0,6,0.8,8,2.3c2,1.5,3.5,3.5,4.6,6s1.7,5.2,2.1,8.2
				c0.4,3,0.6,5.9,0.6,8.8C358.5,282.7,358.3,285.7,358,288.6z"/>
			<path class="st4" d="M294.2,251.3c-2.7-3.5-6.1-6.2-10.2-8.1s-9-2.9-14.6-2.9c-7.4,0-13.5,1.6-18.4,4.9
				c-4.8,3.3-8.4,7.9-10.8,13.8c-2.4,5.9-3.6,12.8-3.6,20.7c0,5.9,0.7,11.3,2,16.1c1.3,4.9,3.3,9,6,12.6c2.7,3.5,6.1,6.2,10.2,8.1
				s9,2.9,14.6,2.9c7.4,0,13.6-1.7,18.4-5c4.8-3.3,8.4-7.9,10.8-13.9c2.4-5.9,3.6-12.9,3.6-20.8c0-5.9-0.7-11.2-2-16
				C298.9,259,296.9,254.8,294.2,251.3z M283.9,289c-0.3,3.1-1,6-2.1,8.6c-1,2.6-2.5,4.8-4.5,6.4c-2,1.6-4.6,2.4-8,2.4
				c-3.3,0-5.9-0.8-7.9-2.4c-2-1.6-3.5-3.7-4.5-6.4c-1-2.6-1.7-5.5-2.1-8.6c-0.4-3.1-0.5-6.1-0.5-9.1c0-3,0.2-6,0.5-9.1
				c0.4-3.1,1-5.9,2.1-8.6c1-2.6,2.5-4.7,4.5-6.3c2-1.6,4.6-2.4,7.9-2.4c3.3,0,6,0.8,8,2.4c2,1.6,3.5,3.7,4.5,6.3
				c1,2.6,1.7,5.5,2.1,8.6c0.3,3.1,0.5,6.1,0.5,9.1C284.4,282.8,284.3,285.9,283.9,289z"/>
			<path class="st4" d="M902.3,251.3c-2.7-3.5-6.1-6.2-10.2-8.1c-4.1-1.9-9-2.9-14.6-2.9c-7.4,0-13.5,1.6-18.4,4.9
				c-4.8,3.3-8.4,7.9-10.8,13.8c-2.4,5.9-3.6,12.8-3.6,20.7c0,5.9,0.7,11.3,2,16.1c1.3,4.9,3.3,9,6,12.6c2.7,3.5,6.1,6.2,10.2,8.1
				s9,2.9,14.6,2.9c7.4,0,13.6-1.7,18.4-5c4.8-3.3,8.4-7.9,10.8-13.9c2.4-5.9,3.6-12.9,3.6-20.8c0-5.9-0.7-11.2-2-16
				C907,259,905,254.8,902.3,251.3z M892.1,289c-0.3,3.1-1,6-2.1,8.6c-1,2.6-2.5,4.8-4.5,6.4c-2,1.6-4.6,2.4-8,2.4
				c-3.3,0-5.9-0.8-7.9-2.4c-2-1.6-3.5-3.7-4.5-6.4c-1-2.6-1.7-5.5-2.1-8.6c-0.4-3.1-0.5-6.1-0.5-9.1c0-3,0.2-6,0.5-9.1
				c0.4-3.1,1-5.9,2.1-8.6c1-2.6,2.5-4.7,4.5-6.3c2-1.6,4.6-2.4,7.9-2.4c3.3,0,6,0.8,8,2.4c2,1.6,3.5,3.7,4.5,6.3
				c1,2.6,1.7,5.5,2.1,8.6s0.5,6.1,0.5,9.1C892.6,282.8,892.4,285.9,892.1,289z"/>
			<path class="st4" d="M737.7,235.5c1.2,0.1,2.4,0.2,3.7,0.2c1.3,0,2.5-0.1,3.7-0.2c1.2-0.1,2.3-0.3,3.3-0.4l12.6-12.2
				c-0.5-1.7-1.5-3.1-2.9-4.4c-1.4-1.2-2.6-2.1-3.8-2.5l-13,8.2l-13-8.2c-1.1,0.4-2.4,1.2-3.8,2.5c-1.4,1.2-2.3,2.7-2.9,4.4
				l12.6,12.2C735.4,235.2,736.5,235.4,737.7,235.5z"/>
			<path class="st4" d="M977.1,241.4c-1.7-0.1-3.1-0.1-4.1-0.1c-1.1,0-2.5,0-4,0.1c-1.5,0.1-2.9,0.2-4.3,0.5v48.3
				c0,5.2-1,9.2-3,11.8c-2,2.6-5.3,4-9.8,4c-4.6,0-7.9-1.3-9.8-4c-2-2.6-2.9-6.6-2.9-11.8V252c0-3.8-0.9-6.5-2.6-8.2
				c-1.7-1.7-4.2-2.6-7.5-2.6h-6.2l-0.7,0.8v48c0,6.3,1.2,11.6,3.5,16c2.3,4.4,5.7,7.7,10.1,10c4.4,2.3,9.8,3.4,16.1,3.4
				c6.3,0,11.7-1.2,16.2-3.4c4.4-2.3,7.8-5.6,10.2-10c2.3-4.4,3.5-9.7,3.5-16v-48.1C980.4,241.7,978.8,241.5,977.1,241.4z"/>
			<path class="st4" d="M216,244.1c-4.1-1.9-8.7-2.8-13.9-2.8c-4.2,0-8.3,0-12.3,0.1c-4.1,0.1-8.4,0.2-13.1,0.3l-0.8,0.7v75.4
				c1.3,0.3,2.8,0.4,4.4,0.5c1.6,0.1,3,0.1,4.1,0.1c1.1,0,2.5,0,4.1-0.1c1.6-0.1,3-0.2,4.4-0.5v-24.2h9.2c5.2,0,9.9-1,13.9-2.9
				c4.1-2,7.2-4.9,9.6-8.8s3.5-8.7,3.5-14.5c0-5.9-1.2-10.8-3.5-14.7C223.3,248.9,220.1,246,216,244.1z M210.9,273.3
				c-0.6,2-1.6,3.8-3.2,5.2c-1.6,1.4-3.9,2.1-6.9,2.1c-0.8,0-2.2,0-4.2,0.1c-1.2,0-2.4,0.1-3.7,0.1v-26.6c1.6,0,3,0.1,4.2,0.1
				c1.2,0,2.5,0,3.6,0c3,0,5.3,0.7,6.9,2.1c1.6,1.4,2.6,3.2,3.2,5.2c0.6,2.1,0.8,4,0.8,5.8C211.7,269.3,211.4,271.3,210.9,273.3z"/>
			<path class="st4" d="M741.1,253.8c3.4,0,6,0.9,7.9,2.6c1.9,1.7,3.2,3.9,3.9,6.6c0.7,2.7,1,5.6,0.9,8.6c1.1,0.3,2.1,0.5,3.1,0.7
				c1,0.2,2.1,0.3,3.4,0.3c3.1,0,5.5-0.8,7.1-2.3c1.7-1.5,2.5-3.9,2.5-7.1c0-4.3-1.2-8.1-3.5-11.6c-2.3-3.5-5.6-6.2-9.9-8.3
				c-4.2-2.1-9.2-3.1-14.9-3.1c-5.9,0-11.2,1.4-16.1,4.2c-4.9,2.8-8.8,7.1-11.7,13c-2.9,5.9-4.4,13.5-4.4,22.8
				c0,4.8,0.5,9.6,1.5,14.2c1,4.7,2.7,8.9,5,12.6c2.3,3.8,5.5,6.8,9.4,9.1c3.9,2.3,8.8,3.4,14.5,3.4c4,0,7.9-0.5,11.7-1.6
				c3.8-1.1,7.2-2.5,10.3-4.3c3.1-1.8,5.7-3.7,7.9-5.8c-0.4-2-1.4-4-3-6.1c-1.6-2.1-3.2-3.7-4.9-4.8c-2.7,2-5.6,3.8-8.7,5.4
				c-3.1,1.6-6.6,2.4-10.4,2.4c-5,0-8.8-2-11.6-6.1c-2.7-4.1-4.1-10.2-4.1-18.3c0-8.6,1.1-15.2,3.2-19.7
				C732.6,256,736.2,253.8,741.1,253.8z"/>
			<path class="st4" d="M609.5,311.4c-0.6-0.8-1.1-1.7-1.7-2.9c-0.5-1.2-1.2-2.8-1.9-4.9l-4.8-14.1c-0.9-2.5-1.9-4.8-3.2-6.8
				c-1.3-2-3.1-3.6-5.5-4.8c-1.1-0.5-2.3-0.9-3.7-1.2c2.4-2,4.4-4.6,6.1-7.7l14-26l-0.9-1.2c-1.7-0.1-3.4-0.3-5.3-0.4
				c-1.9-0.1-3.5-0.1-4.8-0.1c-2.5,0-4.4,0.5-5.5,1.5c-1.2,1-2.3,2.5-3.4,4.5l-11.1,20.5c-0.7,1.4-1.4,2.4-2,2.9s-1.5,0.8-2.9,0.8
				c-1.1,0-2.2,0-3.3,0.1v-29.6c-1.4-0.3-2.9-0.4-4.4-0.5c-1.6-0.1-2.9-0.1-4.1-0.1c-1.1,0-2.4,0-4.1,0.1c-1.6,0.1-3.1,0.2-4.4,0.5
				v75.9c1.3,0.3,2.8,0.4,4.4,0.5c1.6,0.1,3,0.1,4.1,0.1c1.1,0,2.5,0,4.1-0.1c1.6-0.1,3-0.2,4.4-0.5v-32c2-0.1,3.8-0.2,5.2-0.2
				c2.7,0,4.9,0.8,6.5,2.3c1.6,1.5,3.1,4,4.3,7.6l4.4,13.5c1,3.3,2.3,5.7,3.7,7.3c1.4,1.6,3.7,2.4,6.7,2.4c2.3,0,4.4-0.4,6.5-1.3
				c2.1-0.9,3.7-2.1,4.8-3.8C610.8,312.9,610.1,312.1,609.5,311.4z"/>
			<path class="st4" d="M638,303.9V252c0-3.8-0.8-6.5-2.5-8.2c-1.7-1.7-4.2-2.6-7.5-2.6h-6.2L621,242v66.2c0,3.1,0.9,5.6,2.7,7.3
				c1.8,1.8,4.2,2.6,7.2,2.6h7.2h18.5c4.2,0,7.2-1.1,8.9-3.3c1.7-2.2,2.6-6,2.6-11.4h-19.7C645.2,303.5,641.7,303.7,638,303.9z"/>
			<path class="st4" d="M453.5,244.1c-4.1-1.9-8.7-2.8-13.9-2.8c-4.2,0-8.3,0-12.3,0.1c-4.1,0.1-8.4,0.2-13.1,0.3l-0.8,0.7v75.4
				c1.3,0.3,2.8,0.4,4.4,0.5c1.6,0.1,3,0.1,4.1,0.1c1.1,0,2.5,0,4.1-0.1c1.6-0.1,3-0.2,4.4-0.5v-24.2h9.2c5.2,0,9.9-1,13.9-2.9
				c4.1-2,7.2-4.9,9.6-8.8c2.3-3.9,3.5-8.7,3.5-14.5c0-5.9-1.2-10.8-3.5-14.7C460.7,248.9,457.6,246,453.5,244.1z M448.4,273.3
				c-0.6,2-1.6,3.8-3.2,5.2c-1.6,1.4-3.9,2.1-6.9,2.1c-0.8,0-2.2,0-4.2,0.1c-1.2,0-2.4,0.1-3.7,0.1v-26.6c1.6,0,3,0.1,4.2,0.1
				c1.2,0,2.5,0,3.6,0c3,0,5.3,0.7,6.9,2.1c1.6,1.4,2.6,3.2,3.2,5.2c0.6,2.1,0.8,4,0.8,5.8C449.2,269.3,448.9,271.3,448.4,273.3z"/>
			<path class="st4" d="M687.8,241.3c-1,0-2.4,0-4,0.1c-1.6,0.1-3.1,0.2-4.4,0.5v75.9c1.3,0.3,2.8,0.4,4.4,0.5c1.6,0.1,3,0.1,4,0.1
				c1.2,0,2.6,0,4.1-0.1c1.6-0.1,3-0.2,4.4-0.5v-75.9c-1.4-0.3-2.9-0.4-4.4-0.5C690.3,241.4,689,241.3,687.8,241.3z"/>
			<path class="st4" d="M531.7,251.3c-2.7-3.5-6.1-6.2-10.2-8.1s-9-2.9-14.6-2.9c-7.4,0-13.5,1.6-18.4,4.9
				c-4.8,3.3-8.4,7.9-10.8,13.8c-2.4,5.9-3.6,12.8-3.6,20.7c0,5.9,0.7,11.3,2,16.1c1.3,4.9,3.3,9,6,12.6c2.7,3.5,6.1,6.2,10.2,8.1
				c4.1,1.9,9,2.9,14.6,2.9c7.4,0,13.6-1.7,18.4-5c4.8-3.3,8.4-7.9,10.8-13.9c2.4-5.9,3.6-12.9,3.6-20.8c0-5.9-0.7-11.2-2-16
				C536.3,259,534.3,254.8,531.7,251.3z M521.4,289c-0.3,3.1-1,6-2.1,8.6c-1,2.6-2.5,4.8-4.5,6.4c-2,1.6-4.6,2.4-8,2.4
				c-3.3,0-5.9-0.8-7.9-2.4c-2-1.6-3.5-3.7-4.5-6.4c-1-2.6-1.7-5.5-2.1-8.6c-0.4-3.1-0.5-6.1-0.5-9.1c0-3,0.2-6,0.5-9.1
				c0.4-3.1,1-5.9,2.1-8.6c1-2.6,2.5-4.7,4.5-6.3c2-1.6,4.6-2.4,7.9-2.4c3.3,0,6,0.8,8,2.4c2,1.6,3.5,3.7,4.5,6.3
				c1,2.6,1.7,5.5,2.1,8.6c0.3,3.1,0.5,6.1,0.5,9.1C521.9,282.8,521.7,285.9,521.4,289z"/>
			<path class="st4" d="M838.5,311.4c-0.6-0.8-1.1-1.7-1.7-2.9c-0.5-1.2-1.2-2.8-1.9-4.9l-4.8-14.1c-0.9-2.5-1.9-4.8-3.2-6.8
				c-1.3-2-3.1-3.6-5.5-4.8c-1.1-0.5-2.3-0.9-3.7-1.2c2.4-2,4.4-4.6,6.1-7.7l14-26l-0.9-1.2c-1.7-0.1-3.4-0.3-5.3-0.4
				c-1.9-0.1-3.5-0.1-4.8-0.1c-2.5,0-4.4,0.5-5.5,1.5c-1.2,1-2.3,2.5-3.4,4.5l-11.1,20.5c-0.7,1.4-1.4,2.4-2,2.9
				c-0.6,0.5-1.5,0.8-2.9,0.8c-1.1,0-2.2,0-3.3,0.1v-29.6c-1.4-0.3-2.9-0.4-4.4-0.5c-1.6-0.1-2.9-0.1-4.1-0.1c-1.1,0-2.4,0-4.1,0.1
				c-1.6,0.1-3.1,0.2-4.4,0.5v75.9c1.3,0.3,2.8,0.4,4.4,0.5c1.6,0.1,3,0.1,4.1,0.1c1.1,0,2.5,0,4.1-0.1c1.6-0.1,3-0.2,4.4-0.5v-32
				c2-0.1,3.8-0.2,5.2-0.2c2.7,0,4.9,0.8,6.5,2.3c1.6,1.5,3.1,4,4.3,7.6l4.4,13.5c1,3.3,2.3,5.7,3.7,7.3c1.4,1.6,3.7,2.4,6.7,2.4
				c2.3,0,4.4-0.4,6.5-1.3c2.1-0.9,3.7-2.1,4.8-3.8C839.8,312.9,839.1,312.1,838.5,311.4z"/>
		</g>
		<g style="clip-path:url(#SVGID_00000088816033876277910640000010454755614705346742_);">
			<path class="st4" d="M547.3,382.2V376c0-1.1-0.2-2.1-0.6-2.8c-0.4-0.7-1-1.3-1.7-1.7c-0.7-0.4-1.6-0.5-2.6-0.5
				c-0.7,0-1.4,0.1-2.1,0.2s-1.5,0.3-2.1,0.5c-0.7,0.2-1.3,0.4-1.8,0.7c0,0.4,0.1,0.8,0.3,1.2c0.2,0.4,0.4,0.7,0.6,1
				c0.8-0.3,1.6-0.6,2.4-0.8c0.8-0.2,1.6-0.3,2.4-0.3c0.8,0,1.4,0.2,1.8,0.6c0.4,0.4,0.7,1.1,0.7,2.1v1.2c-0.3-0.1-0.7-0.1-1-0.1
				c-0.7,0-1.3-0.1-1.9-0.1c-1.1,0-2.1,0.2-2.9,0.5c-0.9,0.3-1.5,0.9-2,1.6c-0.5,0.7-0.7,1.7-0.7,2.8c0,0.7,0.2,1.4,0.5,2.1
				c0.3,0.7,0.8,1.2,1.5,1.7c0.7,0.4,1.5,0.7,2.4,0.7c0.9,0,1.7-0.2,2.4-0.5c0.7-0.3,1.3-0.8,1.8-1.2c0.1-0.1,0.2-0.2,0.4-0.4
				c0,0,0,0,0,0c0.2,0.5,0.4,0.9,0.8,1.2s0.8,0.6,1.4,0.7c0.3-0.1,0.5-0.4,0.7-0.7c0.2-0.3,0.4-0.6,0.4-0.8
				c-0.3-0.3-0.6-0.7-0.7-1.1C547.4,383.2,547.3,382.7,547.3,382.2z M543.2,383.4c-0.8,0.5-1.6,0.8-2.4,0.8c-0.7,0-1.2-0.2-1.6-0.7
				c-0.4-0.4-0.5-1-0.5-1.6c0-0.8,0.3-1.5,0.8-2c0.5-0.5,1.3-0.7,2.2-0.7c0.6,0,1.2,0,1.9,0.1c0.3,0,0.6,0,0.9,0.1v2.9
				C544.1,382.7,543.6,383.1,543.2,383.4z"/>
			<path class="st4" d="M923.3,365.5c-0.3,0-0.6,0-0.9,0c-0.2,0-0.5,0-0.9,0c-0.3,0-0.6,0-0.9,0.1l-6.8,20.2l0.1,0.1
				c0.2,0.1,0.4,0.1,0.7,0.1c0.2,0,0.5,0.1,0.8,0.1c0.2,0,0.4,0,0.7,0s0.4,0,0.6-0.1l1.6-5.1c0.1,0,0.2,0,0.4,0c0.3,0,0.6,0,0.9,0
				c0.3,0,0.5,0,0.6,0h4.1c0.1,0,0.3,0,0.6,0c0.3,0,0.6,0,0.9,0c0.1,0,0.3,0,0.4,0l1.2,3.7c0.2,0.6,0.4,1,0.7,1.3
				c0.3,0.2,0.6,0.3,1.1,0.3c0.3,0,0.6,0,1-0.1s0.6-0.2,0.8-0.3l-6.8-20.2C923.9,365.6,923.6,365.6,923.3,365.5z M925.1,378.6
				c-0.3,0-0.5,0-0.8,0c-0.3,0-0.4,0-0.5,0h-3.1c-0.1,0-0.3,0-0.5,0c-0.3,0-0.5,0-0.8,0c-0.1,0-0.2,0-0.3,0l1.9-5.8
				c0.1-0.3,0.2-0.8,0.4-1.2c0.1-0.5,0.3-1,0.4-1.5c0.1-0.5,0.3-1,0.4-1.4h0.1c0.2,0.8,0.4,1.6,0.7,2.6c0.3,1,0.6,1.9,0.8,2.7
				l1.5,4.6C925.3,378.6,925.2,378.6,925.1,378.6z"/>
			<path class="st4" d="M553,368.9c0.3,0.1,0.6,0.1,0.9,0.1c0.3,0,0.6,0,0.9-0.1c0.3-0.1,0.6-0.2,0.7-0.3c0.2-0.4,0.3-0.8,0.3-1.3
				c0-0.2,0-0.4-0.1-0.7c0-0.2-0.1-0.4-0.2-0.6c-0.1-0.1-0.4-0.2-0.7-0.3s-0.6-0.1-0.9-0.1c-0.3,0-0.6,0-0.9,0.1s-0.5,0.1-0.7,0.2
				c-0.2,0.4-0.3,0.8-0.3,1.3c0,0.5,0.1,0.9,0.3,1.3C552.4,368.8,552.6,368.8,553,368.9z"/>
			<path class="st4" d="M531.7,381.9V366c0-0.6-0.1-1.1-0.3-1.4c-0.2-0.3-0.6-0.5-1.2-0.5h-1.1l-0.2,0.2v7.9
				c-0.3-0.2-0.6-0.3-0.9-0.5c-0.8-0.4-1.7-0.6-2.6-0.6c-0.9,0-1.8,0.3-2.7,0.8c-0.9,0.6-1.6,1.4-2.2,2.6c-0.6,1.2-0.8,2.6-0.8,4.4
				c0,1.5,0.2,2.8,0.6,4c0.4,1.1,1,2,1.7,2.7c0.8,0.6,1.7,1,2.8,1c0.9,0,1.8-0.2,2.5-0.6c0.7-0.4,1.4-0.9,1.9-1.5
				c0.1,0.2,0.1,0.4,0.2,0.5c0.4,0.7,1,1.2,2,1.4c0.2-0.1,0.5-0.4,0.7-0.7c0.2-0.3,0.4-0.6,0.5-0.8c-0.3-0.3-0.6-0.7-0.7-1.2
				C531.8,383,531.7,382.5,531.7,381.9z M527.1,383.6c-0.6,0.3-1.1,0.4-1.6,0.4c-0.5,0-1-0.2-1.4-0.5c-0.4-0.3-0.8-0.9-1-1.7
				c-0.3-0.8-0.4-1.7-0.4-3c0-1.3,0.1-2.3,0.4-3.1c0.3-0.8,0.7-1.4,1.1-1.8c0.5-0.4,1-0.6,1.6-0.6c0.8,0,1.5,0.2,2.3,0.6
				c0.3,0.2,0.6,0.4,0.9,0.5v7.4c-0.1,0.1-0.1,0.2-0.2,0.3C528.2,382.9,527.7,383.3,527.1,383.6z"/>
			<path class="st4" d="M553.6,371.2h-0.4c-0.2,0-0.6,0-1,0c-0.4,0-0.8,0.1-1.2,0.1c0,0.2-0.1,0.4-0.1,0.5c0,0.2,0,0.3,0,0.5
				c0,0.4,0,0.7,0.1,1h0.6c0.5,0,0.8,0.1,1,0.4c0.2,0.2,0.3,0.6,0.3,1.2v12.2c0,0.7-0.1,1.3-0.2,1.7c-0.1,0.4-0.3,0.8-0.7,1.1
				c-0.3,0.3-0.7,0.6-1.3,0.9c0.1,0.4,0.2,0.7,0.3,1c0.2,0.3,0.3,0.6,0.5,0.8c1.1-0.3,1.9-0.7,2.5-1.1c0.6-0.5,1-1.1,1.3-1.8
				c0.2-0.8,0.4-1.7,0.4-2.9v-13.1c0-0.8-0.2-1.4-0.6-1.9C554.8,371.4,554.3,371.2,553.6,371.2z"/>
			<path class="st4" d="M831.9,370l5.1-4c-0.2-0.4-0.4-0.8-0.8-1.2c-0.4-0.4-0.8-0.6-1.3-0.8l-4.3,4.7c0.1,0.3,0.3,0.5,0.5,0.7
				C831.3,369.8,831.6,369.9,831.9,370z"/>
			<path class="st4" d="M591.9,382.2V376c0-1.1-0.2-2.1-0.6-2.8c-0.4-0.7-1-1.3-1.7-1.7c-0.7-0.4-1.6-0.5-2.6-0.5
				c-0.7,0-1.4,0.1-2.1,0.2c-0.7,0.1-1.5,0.3-2.1,0.5c-0.7,0.2-1.3,0.4-1.8,0.7c0,0.4,0.1,0.8,0.3,1.2c0.2,0.4,0.4,0.7,0.6,1
				c0.8-0.3,1.6-0.6,2.4-0.8c0.8-0.2,1.6-0.3,2.4-0.3c0.8,0,1.4,0.2,1.8,0.6c0.4,0.4,0.7,1.1,0.7,2.1v1.2c-0.3-0.1-0.7-0.1-1-0.1
				c-0.7,0-1.3-0.1-1.9-0.1c-1.1,0-2.1,0.2-2.9,0.5c-0.9,0.3-1.5,0.9-2,1.6c-0.5,0.7-0.7,1.7-0.7,2.8c0,0.7,0.2,1.4,0.5,2.1
				c0.3,0.7,0.8,1.2,1.5,1.7c0.7,0.4,1.5,0.7,2.4,0.7c0.9,0,1.7-0.2,2.4-0.5c0.7-0.3,1.3-0.8,1.8-1.2c0.1-0.1,0.2-0.2,0.4-0.4
				c0,0,0,0,0,0c0.2,0.5,0.4,0.9,0.8,1.2c0.4,0.3,0.8,0.6,1.4,0.7c0.3-0.1,0.5-0.4,0.7-0.7c0.2-0.3,0.4-0.6,0.4-0.8
				c-0.4-0.3-0.6-0.7-0.7-1.1C592,383.2,591.9,382.7,591.9,382.2z M587.7,383.4c-0.8,0.5-1.6,0.8-2.4,0.8c-0.7,0-1.2-0.2-1.6-0.7
				c-0.4-0.4-0.5-1-0.5-1.6c0-0.8,0.3-1.5,0.8-2c0.5-0.5,1.3-0.7,2.2-0.7c0.6,0,1.2,0,1.9,0.1c0.3,0,0.6,0,0.9,0.1v2.9
				C588.6,382.7,588.2,383.1,587.7,383.4z"/>
			<path class="st4" d="M577.4,383.4c-0.4,0.1-0.8,0.3-1.4,0.3c-0.6,0.1-1.2,0.1-1.9,0.1h-1.5c-0.4,0-0.8,0-1.3,0s-1,0-1.5,0.1
				l-0.1-0.1c0.4-0.4,0.7-0.9,1.2-1.5c0.4-0.5,0.8-1,1.1-1.5l5-6.8c0.1-0.2,0.2-0.3,0.3-0.5c0.1-0.2,0.1-0.3,0.1-0.5
				c0-0.2,0-0.4-0.1-0.7c-0.1-0.3-0.2-0.6-0.3-1h-10c0,0.2-0.1,0.5-0.1,0.7c0,0.2,0,0.4,0,0.6c0,0.1,0,0.3,0,0.4
				c0,0.2,0,0.3,0.1,0.5h3.2c0.4,0,0.9,0,1.4,0c0.5,0,1,0,1.5-0.1c0.5,0,0.8-0.1,1.1-0.1l0.1,0.1c-0.4,0.5-0.8,0.9-1.2,1.5
				c-0.4,0.5-0.8,1-1.2,1.5l-5.1,6.9c-0.2,0.2-0.3,0.5-0.4,0.6c-0.1,0.2-0.1,0.4-0.1,0.5c0,0.2,0,0.4,0.1,0.6c0.1,0.2,0.2,0.6,0.3,1
				h8.9c0.7,0,1.2-0.1,1.5-0.4c0.3-0.2,0.4-0.6,0.4-1c0-0.2,0-0.4-0.1-0.6C577.6,383.8,577.5,383.6,577.4,383.4z"/>
			<path class="st4" d="M947.6,365.5c-0.2,0-0.5,0-0.7,0c-0.3,0-0.5,0-0.7,0.1v6.4c0,0.4,0,0.8,0,1.1c0,0.3,0,0.7,0,1.1
				c-0.1,0-0.3,0-0.5,0c-0.2,0-0.5,0-0.7,0c-0.2,0-0.4,0-0.5,0h-5.2c-0.1,0-0.3,0-0.5,0c-0.2,0-0.5,0-0.7,0c-0.2,0-0.4,0-0.5,0
				c0,0,0,0,0,0c0-0.4,0-0.8,0-1.1c0-0.3,0-0.7,0-1.1v-6.4c-0.2,0-0.5-0.1-0.7-0.1c-0.3,0-0.5,0-0.8,0c-0.2,0-0.5,0-0.7,0
				c-0.3,0-0.5,0-0.7,0.1v20.4c0.2,0,0.5,0.1,0.7,0.1c0.3,0,0.5,0,0.7,0c0.2,0,0.5,0,0.8,0c0.3,0,0.5,0,0.7-0.1V379
				c0-0.4,0-0.8,0-1.1c0-0.3,0-0.7,0-1.1c0.1,0,0.3,0,0.5,0c0.2,0,0.5,0,0.7,0c0.2,0,0.4,0,0.5,0h5.2c0.1,0,0.3,0,0.5,0
				c0.2,0,0.5,0,0.7,0c0.2,0,0.4,0,0.5,0c0,0.4,0,0.8,0,1.1c0,0.3,0,0.7,0,1.1v7.1c0.2,0,0.5,0.1,0.7,0.1c0.3,0,0.5,0,0.8,0
				c0.2,0,0.5,0,0.8,0c0.3,0,0.5,0,0.7-0.1v-20.4c-0.2,0-0.5-0.1-0.8-0.1C948.1,365.5,947.9,365.5,947.6,365.5z"/>
			<path class="st4" d="M444.9,382.9c-0.4,0.2-0.9,0.3-1.5,0.4c-0.6,0.1-1.3,0.1-2.1,0.1h-3.3c-0.5,0-1,0-1.6,0
				c-0.6,0-1.3,0.1-1.9,0.1l-0.1-0.1c0.4-0.5,0.8-1.1,1.2-1.6c0.4-0.6,0.8-1.1,1.1-1.6l7.6-11.5c0.2-0.2,0.3-0.4,0.3-0.6
				c0.1-0.2,0.1-0.4,0.1-0.6c0-0.1,0-0.2,0-0.3c0-0.1-0.1-0.3-0.1-0.6c-0.1-0.2-0.2-0.6-0.3-1h-12.2c-0.1,0.3-0.1,0.5-0.2,0.8
				c0,0.2-0.1,0.5-0.1,0.8c0,0.2,0,0.3,0,0.5c0,0.2,0,0.3,0.1,0.5h4.9c0.2,0,0.5,0,1,0c0.4,0,0.9,0,1.4,0c0.5,0,0.9,0,1.4-0.1
				c0.4,0,0.8-0.1,1-0.1l0.1,0.1c-0.4,0.6-0.8,1.1-1.3,1.7c-0.4,0.5-0.8,1.1-1.1,1.5l-7.7,11.6c-0.1,0.2-0.3,0.4-0.3,0.7
				c-0.1,0.2-0.1,0.4-0.1,0.6c0,0.1,0,0.2,0,0.4c0,0.1,0,0.3,0.1,0.5c0.1,0.2,0.1,0.6,0.3,1h11.4c0.7,0,1.2-0.1,1.6-0.4
				c0.3-0.3,0.5-0.7,0.5-1.3c0-0.2,0-0.5-0.1-0.7C445.1,383.4,445,383.2,444.9,382.9z"/>
			<path class="st4" d="M988.7,368.1c-0.1-0.3-0.2-0.7-0.4-0.9h-11.8c-0.1,0.2-0.1,0.5-0.2,0.7c0,0.3-0.1,0.5-0.1,0.8
				c0,0.4,0,0.7,0.1,1h4.9c0.2,0,0.5,0,0.9,0c0.4,0,0.9,0,1.4,0c0.5,0,1,0,1.4-0.1c0.4,0,0.7-0.1,0.9-0.1l0.1,0.1
				c-1.2,1.3-2.3,2.8-3.3,4.5c-1,1.7-1.8,3.4-2.4,5.3c-0.6,1.9-1,3.7-1.2,5.5l-0.1,1.2c0.2,0,0.5,0.1,0.7,0.1c0.3,0,0.5,0,0.8,0
				c0.3,0,0.6,0,0.8,0c0.3,0,0.5-0.1,0.7-0.1l0.1-1c0.1-1.4,0.3-2.7,0.6-3.9c0.3-1.2,0.7-2.4,1.2-3.6c0.5-1.2,1.1-2.3,1.8-3.5
				c0.7-1.2,1.6-2.4,2.6-3.8c0.2-0.3,0.4-0.5,0.4-0.7c0.1-0.2,0.1-0.4,0.1-0.6C988.9,368.7,988.8,368.4,988.7,368.1z"/>
			<path class="st4" d="M472.3,371.1c-0.8,0-1.6,0.2-2.2,0.6c-0.6,0.4-1.1,0.9-1.4,1.5c-0.1,0.2-0.2,0.4-0.3,0.7
				c-0.1-0.4-0.3-0.9-0.5-1.2c-0.5-0.8-1.2-1.3-2.1-1.5c-0.2,0.2-0.5,0.4-0.7,0.7c-0.2,0.3-0.3,0.6-0.4,0.8c0.3,0.2,0.5,0.6,0.7,1.1
				c0.2,0.5,0.4,1.2,0.4,1.9v10.3c0.2,0,0.4,0.1,0.7,0.1c0.3,0,0.5,0,0.8,0c0.3,0,0.5,0,0.8,0s0.5,0,0.7-0.1v-9.8
				c0.2-0.4,0.4-0.7,0.7-1.1c0.3-0.4,0.7-0.7,1.1-1c0.4-0.2,1-0.4,1.5-0.4c0.2,0,0.4,0,0.6,0c0.2,0,0.4,0,0.6,0.1
				c0.3-0.4,0.4-0.8,0.5-1.4c0.1-0.5,0.2-1,0.2-1.4c-0.3,0-0.6-0.1-0.8-0.1C472.8,371.1,472.5,371.1,472.3,371.1z"/>
			<path class="st4" d="M459.1,371.9c-0.8-0.6-1.7-1-2.8-1c-0.9,0-1.8,0.2-2.5,0.6c-0.6,0.3-1.2,0.8-1.6,1.3c-0.1-0.4-0.2-0.7-0.4-1
				c-0.3-0.4-0.7-0.6-1.4-0.6h-0.9l-0.2,0.2v21l0.2,0.2h1.1c0.6,0,1-0.2,1.3-0.5c0.2-0.3,0.3-0.8,0.3-1.4v-5.4
				c0.3,0.2,0.6,0.3,0.9,0.5c0.8,0.4,1.7,0.6,2.6,0.6c0.9,0,1.9-0.3,2.7-0.8c0.9-0.6,1.6-1.4,2.1-2.6c0.6-1.2,0.8-2.6,0.8-4.4
				c0-1.5-0.2-2.8-0.6-4C460.5,373.4,459.9,372.5,459.1,371.9z M458,381.6c-0.3,0.8-0.7,1.4-1.1,1.8c-0.5,0.4-1,0.6-1.6,0.6
				c-0.8,0-1.5-0.2-2.2-0.6c-0.3-0.2-0.6-0.4-0.9-0.6v-7.3c0.1-0.1,0.2-0.3,0.3-0.4c0.5-0.6,1-1,1.6-1.3c0.6-0.3,1.1-0.4,1.6-0.4
				c0.5,0,1,0.2,1.4,0.5c0.4,0.3,0.8,0.9,1,1.7c0.3,0.8,0.4,1.7,0.4,3C458.5,379.8,458.3,380.8,458,381.6z"/>
			<path class="st4" d="M487,382.2V376c0-1.1-0.2-2.1-0.6-2.8c-0.4-0.7-1-1.3-1.7-1.7c-0.7-0.4-1.6-0.5-2.6-0.5
				c-0.7,0-1.4,0.1-2.1,0.2s-1.5,0.3-2.1,0.5c-0.7,0.2-1.3,0.4-1.8,0.7c0,0.4,0.1,0.8,0.3,1.2c0.2,0.4,0.4,0.7,0.6,1
				c0.8-0.3,1.6-0.6,2.4-0.8c0.8-0.2,1.6-0.3,2.4-0.3c0.8,0,1.4,0.2,1.8,0.6c0.4,0.4,0.7,1.1,0.7,2.1v1.2c-0.3-0.1-0.7-0.1-1-0.1
				c-0.7,0-1.3-0.1-1.9-0.1c-1.1,0-2.1,0.2-2.9,0.5c-0.9,0.3-1.5,0.9-2,1.6c-0.5,0.7-0.7,1.7-0.7,2.8c0,0.7,0.2,1.4,0.5,2.1
				c0.3,0.7,0.8,1.2,1.5,1.7c0.7,0.4,1.5,0.7,2.4,0.7c0.9,0,1.7-0.2,2.4-0.5c0.7-0.3,1.3-0.8,1.8-1.2c0.1-0.1,0.2-0.2,0.4-0.4
				c0,0,0,0,0,0c0.2,0.5,0.4,0.9,0.8,1.2s0.8,0.6,1.4,0.7c0.3-0.1,0.5-0.4,0.7-0.7c0.2-0.3,0.4-0.6,0.4-0.8
				c-0.3-0.3-0.6-0.7-0.7-1.1C487,383.2,487,382.7,487,382.2z M482.8,383.4c-0.8,0.5-1.6,0.8-2.4,0.8c-0.7,0-1.2-0.2-1.6-0.7
				c-0.4-0.4-0.5-1-0.5-1.6c0-0.8,0.3-1.5,0.8-2c0.5-0.5,1.3-0.7,2.2-0.7c0.6,0,1.2,0,1.9,0.1c0.3,0,0.6,0,0.9,0.1v2.9
				C483.7,382.7,483.3,383.1,482.8,383.4z"/>
			<path class="st4" d="M501.6,371.2c-0.2,0-0.5-0.1-0.8-0.1c-0.2,0-0.4,0-0.5,0c-0.2,0-0.4,0-0.6,0.1l-3.6,12.4c-0.1,0-0.2,0-0.2,0
				c0,0-0.1-0.1-0.1-0.2c-0.1-0.3-0.2-0.7-0.3-1.2c-0.1-0.5-0.3-1-0.4-1.6s-0.3-1.1-0.5-1.6l-2.1-6.7c-0.1-0.5-0.3-0.8-0.6-1
				c-0.3-0.2-0.6-0.3-1-0.3c-0.2,0-0.5,0-0.8,0.1c-0.3,0.1-0.6,0.2-0.9,0.3l4.2,13c0.2,0.7,0.5,1.2,0.8,1.4c0.3,0.2,0.7,0.3,1.3,0.3
				c0.3,0,0.7,0,1.1,0c0.4,0,0.7-0.1,1-0.1c0.3-0.8,0.6-1.8,1-3c0.4-1.2,0.8-2.4,1.2-3.8c0.4-1.3,0.9-2.7,1.3-4
				c0.4-1.3,0.8-2.6,1.2-3.7l-0.1-0.1C502.1,371.3,501.8,371.3,501.6,371.2z"/>
			<path class="st4" d="M513.8,371.9c-1-0.7-2.1-1-3.6-1c-1.4,0-2.6,0.3-3.5,1s-1.7,1.6-2.2,2.8c-0.5,1.2-0.7,2.5-0.7,4
				c0,1.5,0.2,2.8,0.7,4c0.5,1.2,1.2,2.1,2.1,2.8c0.9,0.7,2.1,1,3.5,1c1.4,0,2.6-0.3,3.6-1c1-0.7,1.7-1.6,2.2-2.7
				c0.5-1.2,0.7-2.5,0.7-4c0-1.5-0.2-2.8-0.7-4C515.5,373.5,514.8,372.6,513.8,371.9z M513.4,381.4c-0.2,0.8-0.5,1.5-1,2.1
				c-0.5,0.5-1.2,0.8-2.1,0.8c-0.9,0-1.6-0.3-2.1-0.8c-0.5-0.5-0.8-1.2-1-2.1c-0.2-0.8-0.3-1.7-0.3-2.7c0-0.9,0.1-1.8,0.3-2.7
				c0.2-0.8,0.5-1.5,1-2.1c0.5-0.5,1.2-0.8,2.1-0.8c0.9,0,1.6,0.3,2.1,0.8c0.5,0.5,0.8,1.2,1,2.1c0.2,0.8,0.3,1.7,0.3,2.7
				C513.7,379.7,513.6,380.5,513.4,381.4z"/>
			<path class="st4" d="M607.1,371.3v-4.4l-0.2-0.2h-1.1c-0.6,0-1,0.2-1.2,0.5s-0.3,0.8-0.3,1.4v2.7l-2.2,0
				c-0.1,0.4-0.1,0.7-0.1,1.1c0,0.4,0,0.8,0.1,1.1l2.2,0v9.9c0,1,0.3,1.7,0.8,2.2c0.5,0.5,1.3,0.7,2.3,0.7c0.6,0,1.2,0,1.7-0.1
				c0.5,0,1.1-0.1,1.6-0.2c0-0.1,0-0.2,0-0.3v-0.3c0-0.6-0.1-1.1-0.2-1.5h-2.1c-0.4,0-0.8-0.1-1-0.4c-0.2-0.2-0.3-0.5-0.3-0.9v-9.2
				l3.7,0c0.1-0.3,0.1-0.7,0.1-1.1c0-0.3,0-0.7-0.1-1.1L607.1,371.3z"/>
			<path class="st4" d="M966.7,365.7c-0.2-0.1-0.4-0.1-0.7-0.2c-0.2,0-0.5-0.1-0.8-0.1c-0.2,0-0.4,0-0.6,0c-0.2,0-0.4,0.1-0.6,0.1
				l-2.8,7.1c-0.1,0.3-0.2,0.6-0.4,1.1c-0.2,0.4-0.3,0.9-0.5,1.4c-0.2,0.5-0.3,0.9-0.4,1.3h-0.1c-0.2-0.6-0.4-1.2-0.6-1.9
				c-0.2-0.7-0.4-1.3-0.7-1.8l-2.5-6c-0.2-0.5-0.4-0.8-0.6-1c-0.2-0.2-0.6-0.3-1-0.3c-0.3,0-0.6,0-0.9,0.1c-0.3,0.1-0.6,0.2-1,0.4
				l5.7,13.4v6.7c0.2,0,0.5,0.1,0.8,0.1s0.5,0,0.7,0c0.2,0,0.5,0,0.8,0c0.3,0,0.5,0,0.7-0.1v-6.5l5.7-13.6L966.7,365.7z"/>
			<path class="st4" d="M748.1,371.3v-4.4l-0.2-0.2h-1.1c-0.6,0-1,0.2-1.2,0.5c-0.2,0.3-0.3,0.8-0.3,1.4v2.7l-2.2,0
				c-0.1,0.4-0.1,0.7-0.1,1.1c0,0.4,0,0.8,0.1,1.1l2.2,0v9.9c0,1,0.3,1.7,0.8,2.2c0.5,0.5,1.3,0.7,2.3,0.7c0.6,0,1.2,0,1.7-0.1
				c0.5,0,1.1-0.1,1.6-0.2c0-0.1,0-0.2,0-0.3v-0.3c0-0.6-0.1-1.1-0.2-1.5h-2.1c-0.4,0-0.8-0.1-1-0.4c-0.2-0.2-0.3-0.5-0.3-0.9v-9.2
				l3.7,0c0.1-0.3,0.1-0.7,0.1-1.1c0-0.3,0-0.7-0.1-1.1L748.1,371.3z"/>
			<path class="st4" d="M773,371.2h-0.4c-0.2,0-0.5,0-0.8,0c-0.3,0-0.7,0.1-1,0.1c0,0.2-0.1,0.4-0.1,0.5c0,0.2,0,0.3,0,0.5
				c0,0.4,0,0.7,0.1,1h0.3c0.5,0,0.8,0.1,1,0.4c0.2,0.2,0.3,0.6,0.3,1.2v11.1c0.2,0,0.4,0.1,0.7,0.1c0.2,0,0.5,0,0.8,0
				c0.3,0,0.5,0,0.8,0c0.2,0,0.5,0,0.7-0.1v-12.3c0-0.8-0.2-1.4-0.6-1.9C774.3,371.4,773.7,371.2,773,371.2z"/>
			<path class="st4" d="M775.5,364.1l-4.3,4.7c0.1,0.3,0.3,0.5,0.5,0.7c0.2,0.2,0.5,0.4,0.8,0.5l5.1-4c-0.2-0.4-0.4-0.8-0.8-1.2
				C776.3,364.5,775.9,364.2,775.5,364.1z"/>
			<path class="st4" d="M838.3,382.2V376c0-1.1-0.2-2.1-0.6-2.8c-0.4-0.7-1-1.3-1.7-1.7c-0.7-0.4-1.6-0.5-2.6-0.5
				c-0.7,0-1.4,0.1-2.1,0.2s-1.5,0.3-2.1,0.5c-0.7,0.2-1.3,0.4-1.8,0.7c0,0.4,0.1,0.8,0.3,1.2c0.2,0.4,0.4,0.7,0.6,1
				c0.8-0.3,1.6-0.6,2.4-0.8c0.8-0.2,1.6-0.3,2.4-0.3c0.8,0,1.4,0.2,1.8,0.6c0.4,0.4,0.7,1.1,0.7,2.1v1.2c-0.3-0.1-0.7-0.1-1-0.1
				c-0.7,0-1.3-0.1-1.9-0.1c-1.1,0-2.1,0.2-2.9,0.5c-0.9,0.3-1.5,0.9-2,1.6c-0.5,0.7-0.7,1.7-0.7,2.8c0,0.7,0.2,1.4,0.5,2.1
				c0.3,0.7,0.8,1.2,1.5,1.7c0.7,0.4,1.5,0.7,2.4,0.7c0.9,0,1.7-0.2,2.4-0.5c0.7-0.3,1.3-0.8,1.8-1.2c0.1-0.1,0.2-0.2,0.4-0.4
				c0,0,0,0,0,0c0.2,0.5,0.4,0.9,0.8,1.2c0.4,0.3,0.8,0.6,1.4,0.7c0.3-0.1,0.5-0.4,0.7-0.7c0.2-0.3,0.4-0.6,0.4-0.8
				c-0.3-0.3-0.6-0.7-0.7-1.1C838.4,383.2,838.3,382.7,838.3,382.2z M834.1,383.4c-0.8,0.5-1.6,0.8-2.4,0.8c-0.7,0-1.2-0.2-1.6-0.7
				c-0.4-0.4-0.5-1-0.5-1.6c0-0.8,0.3-1.5,0.8-2c0.5-0.5,1.3-0.7,2.2-0.7c0.6,0,1.2,0,1.9,0.1c0.3,0,0.6,0,0.9,0.1v2.9
				C835,382.7,834.6,383.1,834.1,383.4z"/>
			<path class="st4" d="M767.1,383v-7.1c0-0.9-0.1-1.7-0.4-2.5c-0.3-0.7-0.7-1.3-1.3-1.8c-0.6-0.4-1.3-0.7-2.3-0.7
				c-1.1,0-2.1,0.3-3.1,0.8c-0.7,0.4-1.2,0.8-1.7,1.2c0-0.6-0.1-1-0.3-1.4c-0.2-0.4-0.7-0.6-1.3-0.6h-1.1l-0.2,0.2v14.7
				c0.2,0,0.4,0.1,0.7,0.1c0.3,0,0.5,0,0.8,0c0.3,0,0.5,0,0.8,0c0.2,0,0.5,0,0.7-0.1v-10.4c0.2-0.2,0.3-0.4,0.5-0.5
				c0.5-0.4,1.1-0.8,1.7-1c0.6-0.2,1.2-0.4,1.7-0.4c0.8,0,1.3,0.2,1.5,0.7c0.3,0.5,0.4,1.2,0.4,2.3v7.8c0,0.6,0.1,1.1,0.3,1.4
				c0.2,0.3,0.6,0.5,1.2,0.5c0.3,0,0.7-0.1,1-0.2c0.3-0.1,0.6-0.3,0.8-0.4c-0.2-0.3-0.3-0.8-0.4-1.2
				C767.2,384,767.1,383.5,767.1,383z"/>
			<path class="st4" d="M793.1,377.6l-1.8-0.7c-0.6-0.2-1.1-0.5-1.5-0.8c-0.3-0.3-0.5-0.7-0.5-1.1c0-0.6,0.2-1,0.6-1.3
				c0.4-0.3,1-0.5,1.6-0.5c0.7,0,1.5,0.1,2.2,0.3c0.7,0.2,1.3,0.4,1.8,0.7c0.2-0.2,0.3-0.4,0.5-0.6c0.1-0.2,0.2-0.5,0.3-0.8
				c0.1-0.3,0.1-0.5,0.1-0.8c-0.6-0.3-1.4-0.5-2.3-0.7c-0.9-0.2-1.7-0.3-2.5-0.3c-1,0-1.9,0.2-2.7,0.5c-0.8,0.3-1.4,0.8-1.9,1.5
				c-0.5,0.7-0.7,1.4-0.7,2.3c0,0.7,0.2,1.4,0.5,1.9c0.3,0.5,0.8,1,1.4,1.4c0.6,0.4,1.2,0.7,1.9,0.9l1.7,0.6
				c0.6,0.2,1.1,0.5,1.4,0.9c0.3,0.4,0.5,0.8,0.5,1.2c0,0.6-0.3,1.1-0.8,1.4c-0.5,0.4-1.2,0.6-2,0.6c-0.7,0-1.5-0.1-2.2-0.4
				c-0.7-0.3-1.4-0.6-2-0.9c-0.2,0.2-0.5,0.5-0.7,0.9c-0.2,0.4-0.3,0.8-0.3,1.1c0.6,0.4,1.4,0.7,2.3,1c0.9,0.3,1.8,0.4,2.9,0.4
				c1.7,0,3.1-0.4,4.2-1.2c1.1-0.8,1.6-1.9,1.6-3.2c0-1.1-0.3-2.1-1-2.8C795.1,378.6,794.2,378,793.1,377.6z"/>
			<path class="st4" d="M852.9,371.2c-0.2,0-0.5-0.1-0.8-0.1c-0.2,0-0.4,0-0.5,0c-0.2,0-0.4,0-0.6,0.1l-3.6,12.4c-0.1,0-0.2,0-0.2,0
				c0,0-0.1-0.1-0.1-0.2c-0.1-0.3-0.2-0.7-0.3-1.2c-0.1-0.5-0.3-1-0.4-1.6c-0.2-0.6-0.3-1.1-0.5-1.6l-2.1-6.7
				c-0.1-0.5-0.3-0.8-0.6-1c-0.3-0.2-0.6-0.3-1-0.3c-0.2,0-0.5,0-0.8,0.1c-0.3,0.1-0.6,0.2-0.9,0.3l4.2,13c0.2,0.7,0.5,1.2,0.8,1.4
				c0.3,0.2,0.7,0.3,1.3,0.3c0.3,0,0.7,0,1.1,0c0.4,0,0.7-0.1,1-0.1c0.3-0.8,0.6-1.8,1-3c0.4-1.2,0.8-2.4,1.2-3.8
				c0.4-1.3,0.9-2.7,1.3-4c0.4-1.3,0.8-2.6,1.2-3.7l-0.1-0.1C853.4,371.3,853.2,371.3,852.9,371.2z"/>
			<path class="st4" d="M823.6,371.1c-0.8,0-1.6,0.2-2.2,0.6c-0.6,0.4-1.1,0.9-1.4,1.5c-0.1,0.2-0.2,0.5-0.3,0.7
				c-0.1-0.4-0.3-0.9-0.5-1.2c-0.5-0.8-1.2-1.3-2.1-1.5c-0.2,0.2-0.5,0.4-0.7,0.7c-0.2,0.3-0.3,0.6-0.4,0.8c0.3,0.2,0.5,0.6,0.7,1.1
				c0.2,0.5,0.4,1.2,0.4,1.9v10.3c0.2,0,0.4,0.1,0.7,0.1c0.3,0,0.5,0,0.8,0c0.3,0,0.5,0,0.8,0c0.2,0,0.5,0,0.7-0.1v-9.8
				c0.2-0.4,0.4-0.7,0.7-1.1c0.3-0.4,0.7-0.7,1.1-1c0.4-0.2,1-0.4,1.5-0.4c0.2,0,0.4,0,0.6,0c0.2,0,0.4,0,0.6,0.1
				c0.3-0.4,0.4-0.8,0.5-1.4c0.1-0.5,0.2-1,0.2-1.4c-0.3,0-0.6-0.1-0.8-0.1C824.1,371.1,823.9,371.1,823.6,371.1z"/>
			<path class="st4" d="M739.8,383v-7.1c0-0.9-0.1-1.7-0.4-2.5c-0.3-0.7-0.7-1.3-1.3-1.8c-0.6-0.4-1.3-0.7-2.3-0.7
				c-1.1,0-2.1,0.3-3.1,0.8c-0.7,0.4-1.2,0.8-1.7,1.2c0-0.6-0.1-1-0.3-1.4c-0.2-0.4-0.7-0.6-1.3-0.6h-1.1l-0.2,0.2v14.7
				c0.2,0,0.4,0.1,0.7,0.1c0.3,0,0.5,0,0.8,0c0.3,0,0.5,0,0.8,0c0.2,0,0.5,0,0.7-0.1v-10.4c0.2-0.2,0.3-0.4,0.5-0.5
				c0.5-0.4,1.1-0.8,1.7-1c0.6-0.2,1.2-0.4,1.7-0.4c0.8,0,1.3,0.2,1.5,0.7c0.3,0.5,0.4,1.2,0.4,2.3v7.8c0,0.6,0.1,1.1,0.3,1.4
				c0.2,0.3,0.6,0.5,1.2,0.5c0.3,0,0.7-0.1,1-0.2c0.3-0.1,0.6-0.3,0.8-0.4c-0.2-0.3-0.3-0.8-0.4-1.2
				C739.8,384,739.8,383.5,739.8,383z"/>
			<path class="st4" d="M810.5,371.9c-0.8-0.6-1.7-1-2.8-1c-0.9,0-1.8,0.2-2.5,0.6c-0.6,0.3-1.2,0.8-1.6,1.3c-0.1-0.4-0.2-0.7-0.4-1
				c-0.3-0.4-0.7-0.6-1.4-0.6h-0.9l-0.2,0.2v21l0.2,0.2h1.1c0.6,0,1-0.2,1.3-0.5c0.2-0.3,0.3-0.8,0.3-1.4v-5.4
				c0.3,0.2,0.6,0.3,0.9,0.5c0.8,0.4,1.7,0.6,2.6,0.6c0.9,0,1.9-0.3,2.7-0.8c0.9-0.6,1.6-1.4,2.1-2.6c0.6-1.2,0.8-2.6,0.8-4.4
				c0-1.5-0.2-2.8-0.6-4C811.8,373.4,811.2,372.5,810.5,371.9z M809.4,381.6c-0.3,0.8-0.7,1.4-1.1,1.8c-0.5,0.4-1,0.6-1.6,0.6
				c-0.8,0-1.5-0.2-2.2-0.6c-0.3-0.2-0.6-0.4-0.9-0.6v-7.3c0.1-0.1,0.2-0.3,0.3-0.4c0.5-0.6,1-1,1.6-1.3c0.6-0.3,1.1-0.4,1.6-0.4
				c0.5,0,1,0.2,1.4,0.5c0.4,0.3,0.8,0.9,1,1.7c0.3,0.8,0.4,1.7,0.4,3C809.8,379.8,809.6,380.8,809.4,381.6z"/>
			<path class="st4" d="M868.2,381.9v-10.6c-0.2,0-0.4-0.1-0.7-0.1c-0.3,0-0.5,0-0.8,0c-0.3,0-0.5,0-0.8,0c-0.2,0-0.5,0-0.7,0.1
				v10.4c-0.2,0.2-0.3,0.4-0.5,0.5c-0.5,0.4-1.1,0.8-1.7,1.1c-0.6,0.3-1.2,0.4-1.7,0.4c-0.8,0-1.3-0.2-1.5-0.7
				c-0.3-0.5-0.4-1.2-0.4-2.3V373c0-0.6-0.1-1.1-0.4-1.4c-0.2-0.3-0.6-0.5-1.2-0.5c-0.4,0-0.7,0.1-1,0.2c-0.3,0.1-0.6,0.3-0.8,0.4
				c0.2,0.4,0.3,0.8,0.4,1.2c0.1,0.5,0.1,0.9,0.1,1.5v7.1c0,0.9,0.1,1.7,0.4,2.4c0.3,0.7,0.7,1.3,1.3,1.8c0.6,0.4,1.3,0.7,2.3,0.7
				c1.1,0,2.1-0.3,3.1-0.8c0.8-0.4,1.4-0.9,2-1.5c0.1,0.3,0.2,0.5,0.3,0.8c0.4,0.7,1.1,1.2,2,1.4c0.2-0.1,0.5-0.4,0.7-0.7
				c0.2-0.3,0.4-0.6,0.4-0.8c-0.3-0.3-0.6-0.7-0.7-1.2C868.2,383,868.2,382.5,868.2,381.9z"/>
			<path class="st4" d="M890.4,366.2c-1-0.5-2.2-0.7-3.5-0.7c-1,0-2,0-3,0c-1,0-2,0-3.1,0.1l-0.2,0.2v20.3c0.2,0,0.5,0.1,0.7,0.1
				c0.3,0,0.5,0,0.7,0c0.2,0,0.5,0,0.8,0c0.3,0,0.5,0,0.7-0.1v-7.3h3.3c1.3,0,2.5-0.3,3.5-0.8c1-0.5,1.8-1.2,2.4-2.2
				c0.6-1,0.9-2.2,0.9-3.7c0-1.5-0.3-2.7-0.9-3.7C892.2,367.5,891.4,366.7,890.4,366.2z M890.2,374c-0.2,0.6-0.6,1.2-1.1,1.7
				c-0.5,0.5-1.3,0.7-2.3,0.7h-1.3c-0.6,0-1.2,0-1.8,0c-0.1,0-0.1,0-0.1,0v-8.5c0.5,0,1.1,0,1.7,0h1.5c1,0,1.8,0.2,2.3,0.7
				c0.5,0.4,0.9,1,1.1,1.6c0.2,0.6,0.3,1.3,0.3,1.9C890.5,372.7,890.4,373.4,890.2,374z"/>
			<path class="st4" d="M635.6,382.2V376c0-1.1-0.2-2.1-0.6-2.8c-0.4-0.7-1-1.3-1.7-1.7c-0.7-0.4-1.6-0.5-2.6-0.5
				c-0.7,0-1.4,0.1-2.1,0.2s-1.5,0.3-2.1,0.5c-0.7,0.2-1.3,0.4-1.8,0.7c0,0.4,0.1,0.8,0.3,1.2c0.2,0.4,0.4,0.7,0.6,1
				c0.8-0.3,1.6-0.6,2.4-0.8c0.8-0.2,1.6-0.3,2.4-0.3c0.8,0,1.4,0.2,1.8,0.6c0.4,0.4,0.7,1.1,0.7,2.1v1.2c-0.3-0.1-0.7-0.1-1-0.1
				c-0.7,0-1.3-0.1-1.9-0.1c-1.1,0-2.1,0.2-2.9,0.5c-0.9,0.3-1.5,0.9-2,1.6c-0.5,0.7-0.7,1.7-0.7,2.8c0,0.7,0.2,1.4,0.5,2.1
				c0.3,0.7,0.8,1.2,1.5,1.7c0.7,0.4,1.5,0.7,2.4,0.7c0.9,0,1.7-0.2,2.4-0.5c0.7-0.3,1.3-0.8,1.8-1.2c0.1-0.1,0.2-0.2,0.4-0.4
				c0,0,0,0,0,0c0.2,0.5,0.4,0.9,0.8,1.2c0.4,0.3,0.8,0.6,1.4,0.7c0.3-0.1,0.5-0.4,0.7-0.7c0.2-0.3,0.4-0.6,0.4-0.8
				c-0.3-0.3-0.6-0.7-0.7-1.1C635.7,383.2,635.6,382.7,635.6,382.2z M631.4,383.4c-0.8,0.5-1.6,0.8-2.4,0.8c-0.7,0-1.2-0.2-1.6-0.7
				c-0.4-0.4-0.5-1-0.5-1.6c0-0.8,0.3-1.5,0.8-2c0.5-0.5,1.3-0.7,2.2-0.7c0.6,0,1.2,0,1.9,0.1c0.3,0,0.6,0,0.9,0.1v2.9
				C632.3,382.7,631.9,383.1,631.4,383.4z"/>
			<path class="st4" d="M663,377.6l-1.8-0.7c-0.6-0.2-1.1-0.5-1.5-0.8c-0.3-0.3-0.5-0.7-0.5-1.1c0-0.6,0.2-1,0.6-1.3
				c0.4-0.3,1-0.5,1.6-0.5c0.7,0,1.5,0.1,2.2,0.3c0.7,0.2,1.3,0.4,1.8,0.7c0.2-0.2,0.3-0.4,0.5-0.6c0.1-0.2,0.2-0.5,0.3-0.8
				c0.1-0.3,0.1-0.5,0.1-0.8c-0.6-0.3-1.4-0.5-2.3-0.7c-0.9-0.2-1.7-0.3-2.5-0.3c-1,0-1.9,0.2-2.7,0.5c-0.8,0.3-1.4,0.8-1.9,1.5
				c-0.5,0.7-0.7,1.4-0.7,2.3c0,0.7,0.2,1.4,0.5,1.9c0.3,0.5,0.8,1,1.4,1.4s1.2,0.7,1.9,0.9l1.7,0.6c0.6,0.2,1.1,0.5,1.4,0.9
				c0.3,0.4,0.5,0.8,0.5,1.2c0,0.6-0.3,1.1-0.8,1.4c-0.5,0.4-1.2,0.6-2,0.6c-0.7,0-1.5-0.1-2.2-0.4s-1.4-0.6-2-0.9
				c-0.2,0.2-0.5,0.5-0.7,0.9c-0.2,0.4-0.3,0.8-0.3,1.1c0.6,0.4,1.4,0.7,2.3,1c0.9,0.3,1.8,0.4,2.9,0.4c1.7,0,3.1-0.4,4.2-1.2
				c1.1-0.8,1.6-1.9,1.6-3.2c0-1.1-0.3-2.1-1-2.8S664.1,378,663,377.6z"/>
			<path class="st4" d="M652.3,383v-7.1c0-0.9-0.1-1.7-0.4-2.5c-0.3-0.7-0.7-1.3-1.3-1.8c-0.6-0.4-1.3-0.7-2.3-0.7
				c-1.1,0-2.1,0.3-3.1,0.8c-0.7,0.4-1.2,0.8-1.7,1.2c0-0.6-0.1-1-0.3-1.4c-0.2-0.4-0.7-0.6-1.3-0.6h-1.1l-0.2,0.2v14.7
				c0.2,0,0.4,0.1,0.7,0.1s0.5,0,0.8,0c0.3,0,0.5,0,0.8,0c0.2,0,0.5,0,0.7-0.1v-10.4c0.2-0.2,0.3-0.4,0.5-0.5c0.5-0.4,1.1-0.8,1.7-1
				c0.6-0.2,1.2-0.4,1.7-0.4c0.8,0,1.3,0.2,1.5,0.7c0.3,0.5,0.4,1.2,0.4,2.3v7.8c0,0.6,0.1,1.1,0.3,1.4c0.2,0.3,0.6,0.5,1.2,0.5
				c0.3,0,0.7-0.1,1-0.2c0.3-0.1,0.6-0.3,0.8-0.4c-0.2-0.3-0.3-0.8-0.4-1.2C652.3,384,652.3,383.5,652.3,383z"/>
			<path class="st4" d="M911.3,384.6c-0.2-0.3-0.4-0.8-0.6-1.4l-1.4-3.6c-0.2-0.6-0.5-1.1-0.8-1.6c-0.3-0.5-0.8-0.8-1.3-0.9
				c0.7-0.2,1.4-0.6,2-1.1c0.6-0.5,1-1.1,1.4-1.9c0.3-0.7,0.5-1.6,0.5-2.5c0-1.3-0.3-2.4-0.8-3.3c-0.5-0.9-1.3-1.6-2.3-2.1
				c-1-0.5-2.2-0.7-3.6-0.7c-1,0-2,0-3.1,0c-1.1,0-2.2,0-3.3,0.1l-0.2,0.2v20.3c0.2,0,0.5,0.1,0.7,0.1c0.3,0,0.5,0,0.7,0
				s0.5,0,0.8,0c0.3,0,0.5,0,0.8-0.1v-8.3h2.6c0.9,0,1.6,0.2,2.1,0.7c0.4,0.5,0.8,1.1,1,1.8l1.6,4.1c0.2,0.6,0.5,1.1,0.7,1.4
				c0.3,0.3,0.7,0.5,1.2,0.5c0.4,0,0.8-0.1,1.2-0.2c0.4-0.2,0.7-0.4,0.9-0.7C911.8,385.1,911.5,384.9,911.3,384.6z M906.5,374.8
				c-0.5,0.4-1.3,0.5-2.3,0.5c-0.4,0-0.9,0-1.5,0c-0.6,0-1.1,0-1.7,0c-0.1,0-0.2,0-0.3,0v-7.5c0.3,0,0.7,0,1.1,0c0.4,0,0.8,0,1.2,0
				c0.4,0,0.8,0,1.1,0c1,0,1.8,0.2,2.3,0.5c0.5,0.4,0.9,0.8,1.1,1.4c0.2,0.6,0.3,1.1,0.3,1.8c0,0.6-0.1,1.2-0.3,1.7
				C907.5,373.9,907.1,374.4,906.5,374.8z"/>
			<path class="st4" d="M721.2,371.8c-0.9-0.6-2-0.9-3.2-0.9c-1.4,0-2.5,0.3-3.4,1c-0.9,0.7-1.6,1.6-2.1,2.8c-0.5,1.2-0.7,2.5-0.7,4
				c0,1,0.1,2,0.3,2.9c0.2,0.9,0.5,1.7,1,2.5c0.5,0.7,1.1,1.3,1.9,1.7c0.8,0.4,1.8,0.6,2.9,0.6c1,0,2-0.2,3-0.5
				c1-0.3,1.8-0.7,2.5-1.2c0-0.3-0.1-0.6-0.3-1c-0.2-0.4-0.4-0.7-0.6-0.9c-0.6,0.3-1.3,0.6-2,0.8c-0.7,0.2-1.4,0.3-2.2,0.3
				c-0.9,0-1.6-0.2-2.2-0.7c-0.5-0.4-0.9-1.1-1.1-1.8c-0.2-0.6-0.2-1.3-0.3-2h8.9c0.1-0.4,0.1-0.8,0.2-1.1c0-0.3,0-0.7,0-1.2
				c0-1.2-0.2-2.3-0.7-3.2C722.8,373.1,722.1,372.4,721.2,371.8z M721.1,377.5h-6.3c0.1-1.3,0.3-2.3,0.8-3.1
				c0.5-0.9,1.3-1.3,2.4-1.3c0.7,0,1.3,0.2,1.8,0.5c0.5,0.4,0.8,0.8,1,1.5s0.3,1.3,0.3,2V377.5z"/>
			<path class="st4" d="M697.2,382.2V376c0-1.1-0.2-2.1-0.6-2.8c-0.4-0.7-1-1.3-1.7-1.7c-0.7-0.4-1.6-0.5-2.6-0.5
				c-0.7,0-1.4,0.1-2.1,0.2s-1.5,0.3-2.1,0.5c-0.7,0.2-1.3,0.4-1.8,0.7c0,0.4,0.1,0.8,0.3,1.2c0.2,0.4,0.4,0.7,0.6,1
				c0.8-0.3,1.6-0.6,2.4-0.8c0.8-0.2,1.6-0.3,2.4-0.3c0.8,0,1.4,0.2,1.8,0.6c0.4,0.4,0.7,1.1,0.7,2.1v1.2c-0.3-0.1-0.7-0.1-1-0.1
				c-0.7,0-1.3-0.1-1.9-0.1c-1.1,0-2.1,0.2-2.9,0.5c-0.9,0.3-1.5,0.9-2,1.6c-0.5,0.7-0.7,1.7-0.7,2.8c0,0.7,0.2,1.4,0.5,2.1
				c0.3,0.7,0.8,1.2,1.5,1.7c0.7,0.4,1.5,0.7,2.4,0.7c0.9,0,1.7-0.2,2.4-0.5c0.7-0.3,1.3-0.8,1.8-1.2c0.1-0.1,0.2-0.2,0.4-0.4
				c0,0,0,0,0,0c0.2,0.5,0.4,0.9,0.8,1.2c0.4,0.3,0.8,0.6,1.4,0.7c0.3-0.1,0.5-0.4,0.7-0.7c0.2-0.3,0.4-0.6,0.4-0.8
				c-0.3-0.3-0.6-0.7-0.7-1.1C697.3,383.2,697.2,382.7,697.2,382.2z M693,383.4c-0.8,0.5-1.6,0.8-2.4,0.8c-0.7,0-1.2-0.2-1.6-0.7
				c-0.4-0.4-0.5-1-0.5-1.6c0-0.8,0.3-1.5,0.8-2c0.5-0.5,1.3-0.7,2.2-0.7c0.6,0,1.2,0,1.9,0.1c0.3,0,0.6,0,0.9,0.1v2.9
				C694,382.7,693.5,383.1,693,383.4z"/>
			<path class="st4" d="M709,371.1c-0.8,0-1.6,0.2-2.2,0.6c-0.6,0.4-1.1,0.9-1.4,1.5c-0.1,0.2-0.2,0.4-0.3,0.7
				c-0.1-0.4-0.3-0.9-0.5-1.2c-0.5-0.8-1.2-1.3-2.1-1.5c-0.2,0.2-0.5,0.4-0.7,0.7c-0.2,0.3-0.3,0.6-0.4,0.8c0.3,0.2,0.5,0.6,0.7,1.1
				c0.2,0.5,0.4,1.2,0.4,1.9v10.3c0.2,0,0.4,0.1,0.7,0.1c0.3,0,0.5,0,0.8,0c0.3,0,0.5,0,0.8,0s0.5,0,0.7-0.1v-9.8
				c0.2-0.4,0.4-0.7,0.7-1.1c0.3-0.4,0.7-0.7,1.1-1c0.4-0.2,1-0.4,1.5-0.4c0.2,0,0.4,0,0.6,0c0.2,0,0.4,0,0.6,0.1
				c0.3-0.4,0.4-0.8,0.5-1.4c0.1-0.5,0.2-1,0.2-1.4c-0.3,0-0.6-0.1-0.8-0.1C709.5,371.1,709.3,371.1,709,371.1z"/>
			<path class="st4" d="M620.9,371.1c-0.8,0-1.6,0.2-2.2,0.6c-0.6,0.4-1.1,0.9-1.4,1.5c-0.1,0.2-0.2,0.4-0.3,0.7
				c-0.1-0.4-0.3-0.9-0.5-1.2c-0.5-0.8-1.2-1.3-2.1-1.5c-0.2,0.2-0.5,0.4-0.7,0.7c-0.2,0.3-0.3,0.6-0.4,0.8c0.3,0.2,0.5,0.6,0.7,1.1
				c0.2,0.5,0.4,1.2,0.4,1.9v10.3c0.2,0,0.4,0.1,0.7,0.1c0.3,0,0.5,0,0.8,0c0.3,0,0.5,0,0.8,0s0.5,0,0.7-0.1v-9.8
				c0.2-0.4,0.4-0.7,0.7-1.1c0.3-0.4,0.7-0.7,1.1-1c0.4-0.2,1-0.4,1.5-0.4c0.2,0,0.4,0,0.6,0c0.2,0,0.4,0,0.6,0.1
				c0.3-0.4,0.4-0.8,0.5-1.4c0.1-0.5,0.2-1,0.2-1.4c-0.3,0-0.6-0.1-0.8-0.1C621.4,371.1,621.2,371.1,620.9,371.1z"/>
			<path class="st4" d="M680.4,371.9c-0.8-0.6-1.7-1-2.8-1c-0.9,0-1.8,0.2-2.5,0.6c-0.6,0.3-1.1,0.8-1.6,1.3c-0.1-0.4-0.2-0.7-0.4-1
				c-0.3-0.4-0.7-0.6-1.4-0.6h-0.9l-0.2,0.2v21l0.2,0.2h1.1c0.6,0,1-0.2,1.3-0.5c0.2-0.3,0.3-0.8,0.3-1.4v-5.4
				c0.3,0.2,0.6,0.3,0.9,0.5c0.8,0.4,1.7,0.6,2.6,0.6c0.9,0,1.9-0.3,2.7-0.8c0.9-0.6,1.6-1.4,2.1-2.6c0.6-1.2,0.8-2.6,0.8-4.4
				c0-1.5-0.2-2.8-0.6-4C681.7,373.4,681.1,372.5,680.4,371.9z M679.3,381.6c-0.3,0.8-0.7,1.4-1.1,1.8c-0.5,0.4-1,0.6-1.6,0.6
				c-0.8,0-1.5-0.2-2.2-0.6c-0.3-0.2-0.6-0.4-0.9-0.6v-7.3c0.1-0.1,0.2-0.3,0.3-0.4c0.5-0.6,1-1,1.6-1.3c0.6-0.3,1.1-0.4,1.6-0.4
				c0.5,0,1,0.2,1.4,0.5c0.4,0.3,0.8,0.9,1,1.7c0.3,0.8,0.4,1.7,0.4,3C679.7,379.8,679.6,380.8,679.3,381.6z"/>
		</g>
	</g>
</g>
</svg>
